<?xml version="1.0"?>
<svg version="1.1" xmlns="http://www.w3.org/2000/svg" width="400px" height="200px" style="border: dashed 2px #aaa"><path fill="#000000" d="M94.2805859375,116.7890625l-4.8125-15.681640625l-0.123046875,0q0.259765625,4.78515625,0.259765625,6.384765625l0,9.296875l-3.787109375,0l0-19.98828125l5.76953125,0l4.73046875,15.28515625l0.08203125,0l5.017578125-15.28515625l5.76953125,0l0,19.98828125l-3.951171875,0l0-9.4609375q0-0.669921875,0.0205078125-1.544921875t0.1845703125-4.6484375l-0.123046875,0l-5.154296875,15.654296875l-3.8828125,0z M120.14462890625,104.18359375q-1.326171875,0-2.078125,0.8408203125t-0.861328125,2.3857421875l5.8515625,0q-0.02734375-1.544921875-0.806640625-2.3857421875t-2.10546875-0.8408203125z M120.73251953125,117.0625q-3.69140625,0-5.76953125-2.037109375t-2.078125-5.76953125q0-3.841796875,1.9208984375-5.9404296875t5.3115234375-2.0986328125q3.240234375,0,5.044921875,1.845703125t1.8046875,5.099609375l0,2.0234375l-9.857421875,0q0.068359375,1.77734375,1.052734375,2.775390625t2.76171875,0.998046875q1.380859375,0,2.611328125-0.287109375t2.5703125-0.916015625l0,3.2265625q-1.09375,0.546875-2.337890625,0.8134765625t-3.03515625,0.2666015625z M146.391484375,116.7890625l-4.169921875,0l0-8.927734375q0-3.30859375-2.4609375-3.30859375q-1.75,0-2.529296875,1.189453125t-0.779296875,3.85546875l0,7.19140625l-4.169921875,0l0-21.2734375l4.169921875,0l0,4.333984375q0,0.505859375-0.095703125,2.37890625l-0.095703125,1.23046875l0.21875,0q1.39453125-2.2421875,4.4296875-2.2421875q2.693359375,0,4.087890625,1.44921875t1.39453125,4.15625l0,9.966796875z M158.93912109375,104.18359375q-1.326171875,0-2.078125,0.8408203125t-0.861328125,2.3857421875l5.8515625,0q-0.02734375-1.544921875-0.806640625-2.3857421875t-2.10546875-0.8408203125z M159.52701171875,117.0625q-3.69140625,0-5.76953125-2.037109375t-2.078125-5.76953125q0-3.841796875,1.9208984375-5.9404296875t5.3115234375-2.0986328125q3.240234375,0,5.044921875,1.845703125t1.8046875,5.099609375l0,2.0234375l-9.857421875,0q0.068359375,1.77734375,1.052734375,2.775390625t2.76171875,0.998046875q1.380859375,0,2.611328125-0.287109375t2.5703125-0.916015625l0,3.2265625q-1.09375,0.546875-2.337890625,0.8134765625t-3.03515625,0.2666015625z M175.9164453125,117.0625q-2.693359375,0-4.2314453125-2.091796875t-1.5380859375-5.796875q0-3.759765625,1.5654296875-5.8583984375t4.3134765625-2.0986328125q2.884765625,0,4.40234375,2.2421875l0.13671875,0q-0.314453125-1.708984375-0.314453125-3.048828125l0-4.89453125l4.18359375,0l0,21.2734375l-3.19921875,0l-0.806640625-1.982421875l-0.177734375,0q-1.421875,2.255859375-4.333984375,2.255859375z M177.3793359375,113.740234375q1.599609375,0,2.3447265625-0.9296875t0.8134765625-3.158203125l0-0.451171875q0-2.4609375-0.7587890625-3.52734375t-2.4677734375-1.06640625q-1.39453125,0-2.1669921875,1.1826171875t-0.7724609375,3.4384765625t0.779296875,3.3837890625t2.228515625,1.1279296875z M190.54220703125,97.552734375q0-2.037109375,2.26953125-2.037109375t2.26953125,2.037109375q0,0.970703125-0.5673828125,1.5107421875t-1.7021484375,0.5400390625q-2.26953125,0-2.26953125-2.05078125z M194.88986328125,116.7890625l-4.169921875,0l0-15.28515625l4.169921875,0l0,15.28515625z M220.001953125,116.7890625l-5.154296875,0l-1.572265625-1.544921875q-2.611328125,1.818359375-5.90625,1.818359375q-3.3359375,0-5.291015625-1.53125t-1.955078125-4.142578125q0-1.873046875,0.8271484375-3.1923828125t2.8369140625-2.4677734375q-1.025390625-1.17578125-1.490234375-2.2490234375t-0.46484375-2.3447265625q0-2.078125,1.5927734375-3.349609375t4.2587890625-1.271484375q2.54296875,0,4.0673828125,1.1826171875t1.5244140625,3.1650390625q0,1.626953125-0.943359375,2.9736328125t-3.048828125,2.5634765625l3.8828125,3.787109375q0.970703125-1.599609375,1.681640625-4.115234375l4.34765625,0q-0.4921875,1.845703125-1.353515625,3.6025390625t-1.955078125,3.1103515625z M204.51171875,110.9921875q0,1.17578125,0.8818359375,1.873046875t2.2626953125,0.697265625q1.72265625,0,3.103515625-0.833984375l-4.5390625-4.51171875q-0.79296875,0.6015625-1.2509765625,1.2578125t-0.4580078125,1.517578125z M209.419921875,101.298828125q0-0.724609375-0.4921875-1.1416015625t-1.271484375-0.4169921875q-0.916015625,0-1.4423828125,0.4375t-0.5263671875,1.244140625q0,1.203125,1.298828125,2.65234375q1.17578125-0.65625,1.8046875-1.2919921875t0.62890625-1.4833984375z M232.15310546875,116.7890625l-4.23828125,0l0-16.4609375l-5.427734375,0l0-3.52734375l15.09375,0l0,3.52734375l-5.427734375,0l0,16.4609375z M248.5835546875,104.18359375q-1.326171875,0-2.078125,0.8408203125t-0.861328125,2.3857421875l5.8515625,0q-0.02734375-1.544921875-0.806640625-2.3857421875t-2.10546875-0.8408203125z M249.1714453125,117.0625q-3.69140625,0-5.76953125-2.037109375t-2.078125-5.76953125q0-3.841796875,1.9208984375-5.9404296875t5.3115234375-2.0986328125q3.240234375,0,5.044921875,1.845703125t1.8046875,5.099609375l0,2.0234375l-9.857421875,0q0.068359375,1.77734375,1.052734375,2.775390625t2.76171875,0.998046875q1.380859375,0,2.611328125-0.287109375t2.5703125-0.916015625l0,3.2265625q-1.09375,0.546875-2.337890625,0.8134765625t-3.03515625,0.2666015625z M270.42806640625,116.7890625l-0.806640625-2.078125l-0.109375,0q-1.052734375,1.326171875-2.1669921875,1.8388671875t-2.9052734375,0.5126953125q-2.201171875,0-3.4658203125-1.2578125t-1.2646484375-3.58203125q0-2.43359375,1.7021484375-3.5888671875t5.1337890625-1.2783203125l2.65234375-0.08203125l0-0.669921875q0-2.32421875-2.37890625-2.32421875q-1.83203125,0-4.306640625,1.107421875l-1.380859375-2.81640625q2.638671875-1.380859375,5.8515625-1.380859375q3.076171875,0,4.716796875,1.33984375t1.640625,4.07421875l0,10.185546875l-2.912109375,0z M269.19759765625,109.70703125l-1.61328125,0.0546875q-1.818359375,0.0546875-2.70703125,0.65625t-0.888671875,1.83203125q0,1.763671875,2.0234375,1.763671875q1.44921875,0,2.3173828125-0.833984375t0.8681640625-2.21484375l0-1.2578125z M293.24328125,116.7890625l-4.169921875,0l0-8.927734375q0-1.654296875-0.5537109375-2.4814453125t-1.7431640625-0.8271484375q-1.599609375,0-2.32421875,1.17578125t-0.724609375,3.869140625l0,7.19140625l-4.169921875,0l0-15.28515625l3.185546875,0l0.560546875,1.955078125l0.232421875,0q0.615234375-1.052734375,1.77734375-1.6474609375t2.666015625-0.5947265625q3.431640625,0,4.6484375,2.2421875l0.369140625,0q0.615234375-1.06640625,1.8115234375-1.654296875t2.7001953125-0.587890625q2.59765625,0,3.9306640625,1.3330078125t1.3330078125,4.2724609375l0,9.966796875l-4.18359375,0l0-8.927734375q0-1.654296875-0.5537109375-2.4814453125t-1.7431640625-0.8271484375q-1.53125,0-2.2900390625,1.09375t-0.7587890625,3.47265625l0,7.669921875z M308.38857421875,114.833984375q0-1.1484375,0.615234375-1.736328125t1.791015625-0.587890625q1.134765625,0,1.7568359375,0.6015625t0.6220703125,1.72265625q0,1.080078125-0.62890625,1.7021484375t-1.75,0.6220703125q-1.1484375,0-1.77734375-0.6083984375t-0.62890625-1.7158203125z"/><path fill="#" d=""/></svg>
